<?xml version="1.0" encoding="UTF-8" standalone="no"?>
<!-- Created with Inkscape (http://www.inkscape.org/) -->

<svg
   width="34.290138mm"
   height="7.9999962mm"
   viewBox="0 0 34.290138 7.9999962"
   version="1.1"
   id="svg1"
   xmlns="http://www.w3.org/2000/svg"
   xmlns:svg="http://www.w3.org/2000/svg">
  <defs
     id="defs1" />
  <g
     id="layer1"
     style="display:inline"
     transform="translate(-82.984461,-88.551122)">
    <g
       id="g4">
      <rect
         style="opacity:1;fill:#4d4d4d;fill-opacity:1;fill-rule:evenodd;stroke:none;stroke-width:0.929519;stroke-opacity:1"
         id="rect3"
         width="8"
         height="8"
         x="82.984459"
         y="88.551117" />
      <path
         d="M 85.230903,94.306392 H 85.80968 V 92.64241 h -0.578777 z m 0.51332,-1.860352 0.403076,-0.430638 0.813043,0.620118 q -0.02756,0.03101 -0.08613,0.0689 -0.05857,0.03445 -0.148139,0.05168 v 2.135961 q -0.0034,0.03101 -0.130914,0.08613 -0.127469,0.05168 -0.303169,0.09646 -0.172254,0.04479 -0.320394,0.04479 H 85.809677 V 94.506214 H 85.2309 v 0.599447 q 0,0.04134 -0.113688,0.110243 -0.110243,0.0689 -0.285943,0.124024 -0.172255,0.05512 -0.361735,0.05512 h -0.134359 v -3.317629 l 0.923286,0.368626 z m 1.319472,-0.961183 0.489204,-0.592557 q 0,0 0.08957,0.06546 0.08957,0.06546 0.227376,0.16881 0.137804,0.103353 0.289388,0.220486 0.15503,0.117134 0.282498,0.223932 -0.031,0.113688 -0.199815,0.113688 h -2.749188 l -0.05857,-0.199816 z m 1.5813,0.923286 0.409967,-0.458198 0.881945,0.658014 q -0.03101,0.0379 -0.09302,0.07579 -0.06201,0.0379 -0.161919,0.05857 v 1.488282 q 0,0.306614 -0.0689,0.52021 -0.0689,0.210151 -0.296279,0.334174 -0.223931,0.120579 -0.692464,0.16192 -0.0069,-0.223931 -0.02756,-0.385851 -0.01723,-0.16192 -0.06546,-0.265272 -0.04479,-0.09302 -0.127469,-0.165365 -0.07924,-0.07235 -0.258382,-0.110243 v -0.08957 q 0,0 0.09302,0.0069 0.09302,0.0034 0.20326,0.01034 0.113689,0.0034 0.16881,0.0034 0.106798,0 0.106798,-0.113688 v -1.529597 h -0.685574 v 2.983455 q 0,0.04479 -0.117133,0.117133 -0.113689,0.07579 -0.296279,0.134359 -0.18259,0.05857 -0.382406,0.05857 h -0.141249 v -3.87229 l 0.964628,0.37896 z m -2.349556,-3.207385 1.474501,0.36518 q -0.02067,0.07579 -0.103353,0.117133 -0.07924,0.0379 -0.268717,0.05857 0.244602,0.272163 0.602892,0.471978 0.35829,0.199816 0.771702,0.341065 0.416857,0.137804 0.833713,0.223931 0.420302,0.08268 0.788928,0.120579 v 0.113688 q -0.217041,0.0689 -0.375516,0.237712 -0.155029,0.165364 -0.248047,0.37207 -0.09302,0.206706 -0.117133,0.399632 -0.816488,-0.306614 -1.436606,-0.85783 -0.620117,-0.551215 -0.926731,-1.343588 -0.244602,0.375516 -0.637343,0.737251 -0.389296,0.35829 -0.881945,0.678684 -0.492649,0.320394 -1.04731,0.575332 -0.551216,0.251492 -1.116212,0.413411 l -0.03445,-0.07579 q 0.471979,-0.261827 0.919841,-0.623563 0.447863,-0.361735 0.819934,-0.768256 0.375515,-0.406522 0.630453,-0.809598 0.258382,-0.403077 0.3514,-0.747586 z"
         id="text1"
         style="font-weight:900;font-size:7.05556px;font-family:'Source Han Serif CN';-inkscape-font-specification:'Source Han Serif CN Heavy';letter-spacing:0px;word-spacing:0px;fill:#ffffff;fill-opacity:1;fill-rule:evenodd"
         aria-label="命" />
      <path
         style="font-size:4.23333px;font-family:'Source Sans Pro';-inkscape-font-specification:'Source Sans Pro';letter-spacing:0px;word-spacing:0px;fill:#4d4d4d;fill-rule:nonzero;stroke-width:1.20884"
         d="m 92.033286,90.130124 q 1.459263,-0.479759 2.09894,-1.519233 l 0.479756,0.05997 q 0.07996,0.07996 -0.05997,0.09994 l -0.02,0.03997 q 0.859565,0.899546 2.058959,1.179404 l -0.219888,0.439778 q -0.559712,-0.159913 -1.03947,-0.479752 v 0.339829 h -2.038969 v -0.299849 q -0.499748,0.339829 -1.059465,0.539727 z m 2.258859,-1.059464 q -0.339829,0.459767 -0.879556,0.839575 h 1.819081 q -0.399799,-0.25987 -0.939525,-0.839575 z m 0.999495,3.258353 h 0.419788 q 0.05997,0 0.05997,-0.05997 v -1.219381 h -0.859567 v 2.198887 h -0.399797 v -2.578696 h 1.659161 v 1.699141 q 0,0.339828 -0.339827,0.339828 H 95.35161 Z m -2.818575,-1.639172 h 1.59919 v 1.979001 h -0.399797 v -0.179909 h -0.799596 v 0.299848 h -0.399797 z m 1.199393,0.379808 h -0.799596 v 1.039475 h 0.799596 z m 6.936492,0.599698 q 0.27986,-0.539729 0.33983,-1.639173 h -0.67966 q 0.06,1.099444 0.33983,1.639173 z m 0.73962,-1.639173 q -0.04,1.239374 -0.47975,1.99899 0.31984,0.399798 0.89954,0.699648 l -0.25986,0.439777 q -0.63968,-0.419789 -0.89955,-0.799597 -0.45977,0.519737 -1.419279,0.899546 l -0.199899,-0.399799 q 1.039478,-0.419786 1.379298,-0.859565 -0.33982,-0.659666 -0.379802,-1.319333 -0.11994,0.299849 -0.23988,0.459768 L 99.40956,90.88974 q 0.59969,-0.879557 0.71963,-2.178899 l 0.41979,0.09994 q 0.11994,0.07996 -0.06,0.119941 -0.06,0.359818 -0.15992,0.719636 h 1.3593 V 90.03017 Z M 99.48952,89.07066 q -0.119941,0.299847 -0.279859,0.499747 l -0.319838,-0.17991 q 0.159918,-0.259868 0.299848,-0.599697 l 0.359817,0.179909 q 0.07996,0.07996 -0.05997,0.09994 z m -1.279355,2.818575 q 0.27986,0.07996 0.499748,0.179909 0.15992,-0.179909 0.259868,-0.539727 h -0.579707 q -0.07995,0.179908 -0.179909,0.359818 z m -0.279858,0.499747 -0.319839,-0.179908 q 0.1999,-0.299848 0.399799,-0.679657 H 97.25065 v -0.319839 h 0.879556 q 0.119942,-0.259869 0.17991,-0.439777 l 0.379807,0.09994 q 0.07996,0.07995 -0.05997,0.09995 l -0.11994,0.239878 h 1.139421 v 0.319839 h -0.299846 q -0.09995,0.399798 -0.299848,0.679656 0.179908,0.07996 0.379809,0.1999 l -0.17991,0.319839 q -0.219887,-0.139924 -0.399796,-0.219884 -0.519738,0.519739 -1.399292,0.639676 l -0.139928,-0.359817 q 0.779606,-0.07996 1.199394,-0.439778 -0.219888,-0.09994 -0.439778,-0.179909 z m 0.399798,-3.7581 h 0.319837 q 0.159921,0.02 0.02,0.119941 v 0.859567 h 1.019479 v 0.319838 h -0.839574 q 0.219889,0.259867 0.679655,0.499748 l -0.219888,0.339827 q -0.339829,-0.199898 -0.639677,-0.559717 v 0.479758 h -0.339829 v -0.379809 q -0.319837,0.399798 -0.879554,0.719637 l -0.259873,-0.319841 q 0.619688,-0.319839 1.019485,-0.779605 H 97.29063 v -0.319838 h 1.039475 z m -0.559717,0.919535 Q 97.630459,89.250569 97.41057,89.03068 l 0.319839,-0.199901 q 0.239878,0.239881 0.359817,0.499749 z m 5.577182,0.419788 q -0.1999,-0.339828 -0.51974,-0.739627 l 0.3798,-0.279858 q 0.35982,0.339828 0.55972,0.719636 z m 1.43926,0.659666 v 0.739628 h 1.99901 v 0.379806 h -1.99901 v 1.439273 h -0.45975 v -1.439273 h -1.999 v -0.379806 h 1.999 v -0.739628 h -1.5992 v -0.379808 h 1.5992 v -1.519232 h 0.43976 q 0.15993,0.02 0.02,0.11994 v 1.399294 h 1.5992 v 0.379807 z m 0.55972,-0.759616 q 0.25987,-0.439777 0.43978,-0.979505 l 0.43978,0.17991 q 0.11992,0.07996 -0.04,0.07996 -0.21988,0.659667 -0.43978,0.919536 z m 3.1784,0.862065 h 2.61867 q 0.40481,0 0.46477,-0.254872 0.06,-0.209894 0.10995,-0.554718 0.16492,0.07496 0.39481,0.15492 -0.0749,0.33983 -0.13993,0.55472 -0.12993,0.449773 -0.73464,0.449773 h -2.79359 q -0.66465,0 -0.66465,-0.644674 v -1.679152 h 3.58817 v 1.519232 h -0.3848 v -0.169914 h -2.81857 v 0.289854 q 0,0.334831 0.35981,0.334831 z m -1.32433,0.859566 h 3.48824 V 91.22707 h 0.40479 v 0.364816 h 1.07945 v 0.354821 h -1.07945 v 0.814588 q 0,0.594699 -0.64966,0.594699 -0.24488,0 -0.79961,-0.0049 -0.0249,-0.184908 -0.0749,-0.429783 0.45977,0.03498 0.75961,0.03498 0.35982,0 0.35982,-0.309844 v -0.699646 h -3.48824 z m 0.96451,-2.488743 v 0.659666 h 2.81857 v -0.659666 z m -0.025,3.118425 0.24487,-0.259869 q 0.55473,0.434781 0.82959,0.684654 l -0.28985,0.294852 q -0.45977,-0.439779 -0.78461,-0.719637 z m 5.48222,-0.212394 q 0.97952,-0.899545 1.43929,-1.998991 h -1.25937 v -0.379806 h 1.35933 v -0.999495 h 0.3798 q 0.15991,0.02 0.02,0.119941 v 0.879556 h 1.43927 v 0.379807 h -1.31933 q 0.31984,0.959516 1.43926,1.998992 l -0.27985,0.399797 q -0.85957,-0.859565 -1.27935,-1.739121 v 1.159414 h 0.57971 v 0.379808 h -0.57971 v 0.979505 h -0.3998 v -0.979505 h -0.51973 v -0.379808 h 0.51973 v -1.159414 q -0.47976,1.059466 -1.23937,1.71913 z m 0.15993,-3.138414 q -0.10002,0.519737 -0.27986,0.979506 0.15993,0.05997 0,0.139928 v 3.238365 h -0.3998 v -2.498738 q -0.13993,0.299849 -0.35981,0.519737 l -0.27985,-0.359818 q 0.67965,-0.919535 0.93951,-2.278849 l 0.43978,0.159919 q 0.10002,0.07996 -0.06,0.09995 z"
         id="text3"
         aria-label="命数半导体" />
      <path
         d="m 92.206381,94.137128 h 0.240623 l 0.303185,0.842179 q 0.02886,0.08181 0.05535,0.166031 0.02887,0.08181 0.05776,0.163624 h 0.0097 q 0.02887,-0.08181 0.05295,-0.163624 0.02645,-0.08421 0.05534,-0.166031 l 0.298374,-0.842179 h 0.243029 v 1.578488 h -0.187687 v -0.868651 q 0,-0.105875 0.0097,-0.233402 0.0097,-0.127532 0.01685,-0.233406 h -0.0097 l -0.125123,0.358528 -0.298374,0.818119 h -0.13236 L 92.497574,94.738685 92.37245,94.380157 h -0.0097 q 0.0072,0.105874 0.01443,0.233406 0.0097,0.12753 0.0097,0.233402 v 0.868651 h -0.180466 z m 1.579689,0.409059 h 0.197312 v 1.169429 H 93.78607 Z m 0.101068,-0.240623 q -0.05774,0 -0.09866,-0.0361 -0.0385,-0.0361 -0.0385,-0.09143 0,-0.05775 0.0385,-0.09144 0.04091,-0.0361 0.09866,-0.0361 0.05774,0 0.09624,0.0361 0.04091,0.03369 0.04091,0.09144 0,0.05535 -0.04091,0.09143 -0.0385,0.0361 -0.09624,0.0361 z m 0.340482,0.240623 h 0.163624 l 0.01684,0.168435 h 0.0072 q 0.08421,-0.08421 0.175653,-0.139561 0.09383,-0.05774 0.216562,-0.05774 0.185279,0 0.269498,0.115497 0.08664,0.115498 0.08664,0.341684 v 0.74112 h -0.197309 v -0.714654 q 0,-0.16603 -0.05295,-0.238215 -0.05295,-0.07459 -0.168437,-0.07459 -0.09143,0 -0.161217,0.04572 -0.06978,0.04572 -0.158811,0.13475 v 0.846992 h -0.197312 z m 1.560443,1.708424 q -0.108267,0 -0.19731,-0.02167 -0.08903,-0.01925 -0.154,-0.06015 -0.06255,-0.04091 -0.09866,-0.09866 -0.03369,-0.05775 -0.03369,-0.13475 0,-0.07459 0.04572,-0.141967 0.04571,-0.06738 0.125125,-0.122719 v -0.0097 q -0.0433,-0.02647 -0.0746,-0.0722 -0.02886,-0.04812 -0.02886,-0.117899 0,-0.07459 0.04091,-0.129937 0.04091,-0.05535 0.08664,-0.08664 v -0.0097 q -0.05775,-0.04812 -0.105864,-0.12753 -0.04572,-0.08181 -0.04572,-0.187686 0,-0.09624 0.03369,-0.17325 0.0361,-0.077 0.09624,-0.129936 0.06015,-0.05535 0.139561,-0.08421 0.08181,-0.02887 0.170842,-0.02887 0.04812,0 0.08904,0.0097 0.0433,0.0072 0.077,0.01925 h 0.406654 v 0.151592 h -0.240624 q 0.04091,0.04091 0.06738,0.103472 0.02887,0.06255 0.02887,0.137155 0,0.09383 -0.03369,0.170842 -0.03369,0.0746 -0.09144,0.127529 -0.05776,0.05053 -0.137155,0.0794 -0.077,0.02886 -0.16603,0.02886 -0.04331,0 -0.08903,-0.0097 -0.04572,-0.01207 -0.08664,-0.03128 -0.03128,0.02647 -0.05295,0.06015 -0.02167,0.03128 -0.02167,0.0794 0,0.05535 0.0433,0.09144 0.04331,0.0361 0.163623,0.0361 h 0.226187 q 0.204529,0 0.305591,0.06738 0.103472,0.06497 0.103472,0.211747 0,0.08181 -0.04092,0.154 -0.0409,0.0746 -0.117899,0.129936 -0.077,0.05535 -0.187689,0.08664 -0.108278,0.03369 -0.245435,0.03369 z m 0,-1.041898 q 0.05054,0 0.09383,-0.01925 0.04572,-0.01925 0.0794,-0.05534 0.0361,-0.0361 0.05535,-0.08664 0.01925,-0.05295 0.01925,-0.1179 0,-0.129936 -0.07219,-0.199717 -0.0722,-0.07219 -0.175656,-0.07219 -0.103472,0 -0.175655,0.07219 -0.07219,0.06978 -0.07219,0.199717 0,0.06497 0.01926,0.1179 0.01925,0.05053 0.05294,0.08664 0.0361,0.0361 0.0794,0.05534 0.04571,0.01925 0.09624,0.01925 z m 0.02887,0.904741 q 0.08421,0 0.151593,-0.02167 0.06978,-0.01925 0.117902,-0.05295 0.04812,-0.03128 0.0746,-0.0746 0.02647,-0.0433 0.02647,-0.08904 0,-0.08181 -0.06015,-0.113094 -0.06015,-0.03128 -0.175655,-0.03128 h -0.202132 q -0.03369,0 -0.07458,-0.0048 -0.0385,-0.0025 -0.077,-0.01443 -0.06255,0.04571 -0.09144,0.09624 -0.02886,0.05053 -0.02886,0.101068 0,0.09383 0.08904,0.149187 0.09144,0.05535 0.250248,0.05535 z M 96.76138,95.74449 q -0.125125,0 -0.238218,-0.04571 -0.113094,-0.04572 -0.197311,-0.115498 l 0.09866,-0.132342 q 0.077,0.06255 0.156406,0.101068 0.08181,0.0385 0.187684,0.0385 0.115497,0 0.173249,-0.05295 0.05774,-0.05294 0.05774,-0.129937 0,-0.04571 -0.02406,-0.0794 -0.02407,-0.03369 -0.06255,-0.05776 -0.0361,-0.02647 -0.08421,-0.04571 -0.04812,-0.01926 -0.09624,-0.0385 -0.06255,-0.02167 -0.125122,-0.04812 -0.06255,-0.02887 -0.113096,-0.06738 -0.04812,-0.04091 -0.0794,-0.09383 -0.03128,-0.05294 -0.03128,-0.12753 0,-0.06978 0.02646,-0.129936 0.02886,-0.06255 0.0794,-0.105864 0.05295,-0.04571 0.127529,-0.06978 0.0746,-0.02647 0.168436,-0.02647 0.110694,0 0.202123,0.0385 0.09383,0.0385 0.161219,0.09383 l -0.09383,0.125124 q -0.06015,-0.04572 -0.125123,-0.0746 -0.06497,-0.02887 -0.141969,-0.02887 -0.110682,0 -0.163623,0.05054 -0.05054,0.05053 -0.05054,0.117901 0,0.04091 0.02167,0.07219 0.02167,0.02887 0.05774,0.05295 0.0361,0.02167 0.08181,0.04091 0.04812,0.01684 0.09866,0.0361 0.06256,0.02406 0.125125,0.05053 0.06497,0.02646 0.115497,0.06738 0.05053,0.0385 0.08181,0.09624 0.03369,0.05774 0.03369,0.13956 0,0.0722 -0.02887,0.134751 -0.02646,0.06255 -0.08181,0.110692 -0.05294,0.04812 -0.134749,0.0746 -0.0794,0.02886 -0.182873,0.02886 z m 0.55223,-1.742111 h 0.197311 v 0.466809 l -0.0072,0.240622 q 0.08421,-0.0794 0.175655,-0.134749 0.09143,-0.05774 0.214154,-0.05774 0.185279,0 0.269497,0.115497 0.08664,0.115498 0.08664,0.341684 v 0.74112 h -0.197283 v -0.714654 q 0,-0.16603 -0.05295,-0.238215 -0.05294,-0.07459 -0.168436,-0.07459 -0.09143,0 -0.161218,0.04572 -0.06978,0.04572 -0.158811,0.13475 v 0.846992 h -0.197311 z m 1.500287,1.742111 q -0.187686,0 -0.274309,-0.115498 -0.08421,-0.115498 -0.08421,-0.341684 v -0.74112 h 0.199717 v 0.71465 q 0,0.166031 0.05053,0.240624 0.05295,0.07217 0.168438,0.07217 0.09144,0 0.161216,-0.04571 0.06978,-0.04812 0.153999,-0.151593 v -0.83015 h 0.197311 v 1.169427 h -0.163623 l -0.01683,-0.182873 h -0.0072 q -0.08181,0.09624 -0.17325,0.153999 -0.08903,0.05774 -0.211747,0.05774 z m 1.122511,0 q -0.125125,0 -0.238217,-0.04571 -0.113096,-0.04572 -0.197313,-0.115498 l 0.09866,-0.132342 q 0.077,0.06255 0.156404,0.101068 0.08185,0.0385 0.187687,0.0385 0.115501,0 0.173241,-0.05295 0.0578,-0.05294 0.0578,-0.129937 0,-0.04571 -0.0241,-0.0794 -0.0241,-0.03369 -0.0626,-0.05776 -0.0361,-0.02647 -0.0842,-0.04571 -0.04817,-0.01926 -0.09626,-0.0385 -0.06256,-0.02167 -0.125125,-0.04812 -0.06256,-0.02887 -0.113091,-0.06738 -0.04812,-0.04091 -0.0794,-0.09383 -0.03128,-0.05294 -0.03128,-0.12753 0,-0.06978 0.02646,-0.129936 0.02887,-0.06255 0.0794,-0.105864 0.05295,-0.04571 0.127532,-0.06978 0.07456,-0.02647 0.16844,-0.02647 0.110694,0 0.202124,0.0385 0.0938,0.0385 0.16121,0.09383 l -0.0938,0.125124 q -0.0602,-0.04572 -0.12513,-0.0746 -0.065,-0.02887 -0.141966,-0.02887 -0.110683,0 -0.163622,0.05054 -0.05057,0.05053 -0.05057,0.117901 0,0.04091 0.02169,0.07219 0.02169,0.02887 0.05777,0.05295 0.03608,0.02167 0.08185,0.04091 0.04817,0.01684 0.09866,0.0361 0.0626,0.02406 0.12512,0.05053 0.065,0.02646 0.1155,0.06738 0.0506,0.0385 0.0818,0.09624 0.0337,0.05774 0.0337,0.13956 0,0.0722 -0.0289,0.134751 -0.0265,0.06255 -0.0819,0.110692 -0.053,0.04812 -0.13474,0.0746 -0.0795,0.02886 -0.182876,0.02886 z m 0.552232,-1.742111 h 0.19731 v 0.466809 l -0.008,0.240622 q 0.0842,-0.0794 0.17566,-0.134749 0.0914,-0.05774 0.21415,-0.05774 0.18528,0 0.2695,0.115497 0.0866,0.115498 0.0866,0.341684 v 0.74112 h -0.1973 v -0.714654 q 0,-0.16603 -0.0529,-0.238215 -0.0529,-0.07459 -0.16843,-0.07459 -0.0914,0 -0.16122,0.04572 -0.0699,0.04572 -0.15882,0.13475 v 0.846992 h -0.1973 z m 1.5003,1.742111 q -0.1877,0 -0.27432,-0.115498 -0.0842,-0.115498 -0.0842,-0.341684 v -0.74112 h 0.19971 v 0.71465 q 0,0.166031 0.0506,0.240624 0.0529,0.07217 0.16844,0.07217 0.0914,0 0.16121,-0.04571 0.0699,-0.04812 0.154,-0.151593 v -0.83015 h 0.1973 v 1.169427 h -0.16361 l -0.0167,-0.182873 h -0.008 q -0.0817,0.09624 -0.17324,0.153999 -0.089,0.05774 -0.21175,0.05774 z m 1.60496,0 q -0.16604,0 -0.30801,-0.06255 -0.14198,-0.06256 -0.24544,-0.170844 l 0.1203,-0.139561 q 0.0843,0.08904 0.19731,0.144373 0.11547,0.05295 0.23823,0.05295 0.1564,0 0.24303,-0.06978 0.0866,-0.07219 0.0866,-0.187684 0,-0.06015 -0.0216,-0.101068 -0.0192,-0.0433 -0.0554,-0.07219 -0.0337,-0.03128 -0.0818,-0.05535 -0.0481,-0.02407 -0.10354,-0.05053 l -0.22619,-0.09866 q -0.0553,-0.02406 -0.11306,-0.05774 -0.0578,-0.03369 -0.10355,-0.08181 -0.0458,-0.04812 -0.0746,-0.113093 -0.0289,-0.06737 -0.0289,-0.153999 0,-0.08903 0.0362,-0.16603 0.0385,-0.077 0.10356,-0.132344 0.0674,-0.05774 0.15641,-0.08904 0.0914,-0.03128 0.1997,-0.03128 0.14199,0 0.26229,0.05535 0.1203,0.05295 0.20453,0.139561 l -0.10816,0.129935 q -0.0724,-0.06978 -0.16121,-0.108267 -0.0866,-0.04091 -0.19731,-0.04091 -0.13233,0 -0.21414,0.06256 -0.0794,0.06015 -0.0794,0.168435 0,0.05774 0.0216,0.09866 0.0241,0.0385 0.0626,0.06978 0.0385,0.02886 0.0842,0.05294 0.0457,0.02167 0.0939,0.04091 l 0.22378,0.09624 q 0.0674,0.02886 0.12752,0.06738 0.0602,0.0361 0.10355,0.08664 0.0434,0.04812 0.0674,0.115498 0.0265,0.06497 0.0265,0.151592 0,0.09384 -0.0385,0.175656 -0.0362,0.08181 -0.10591,0.144373 -0.0699,0.06015 -0.16843,0.09624 -0.0987,0.03368 -0.22376,0.03368 z m 1.15137,0 q -0.11789,0 -0.22138,-0.0409 -0.10108,-0.0433 -0.17806,-0.120318 -0.0746,-0.0794 -0.11788,-0.192499 -0.0434,-0.113093 -0.0434,-0.257465 0,-0.144375 0.0434,-0.257467 0.0458,-0.115498 0.11788,-0.194905 0.0746,-0.0794 0.16844,-0.120316 0.0938,-0.04331 0.1949,-0.04331 0.11063,0 0.19731,0.0385 0.0891,0.0385 0.14679,0.110694 0.0602,0.07219 0.0915,0.173247 0.0312,0.101068 0.0312,0.226187 0,0.03128 -0.002,0.06255 0,0.02887 -0.005,0.05054 h -0.78923 q 0.0121,0.187686 0.11546,0.298373 0.10602,0.108278 0.27431,0.108278 0.0843,0 0.154,-0.02405 0.0724,-0.02647 0.13716,-0.06738 l 0.0699,0.129937 q -0.077,0.04812 -0.17085,0.08422 -0.0939,0.0361 -0.21415,0.0361 z m 0.25748,-0.707432 q 0,-0.178061 -0.077,-0.269497 -0.0746,-0.09383 -0.21175,-0.09383 -0.0626,0 -0.12031,0.02406 -0.0554,0.02406 -0.10108,0.07219 -0.0459,0.04572 -0.077,0.113095 -0.0289,0.06738 -0.0385,0.153999 z m 0.3116,-0.490871 h 0.16362 l 0.0169,0.168435 h 0.008 q 0.077,-0.08421 0.16603,-0.139561 0.0914,-0.05774 0.1973,-0.05774 0.13476,0 0.20934,0.06015 0.077,0.05774 0.11306,0.163624 0.0914,-0.101068 0.18287,-0.161218 0.0938,-0.06255 0.20214,-0.06255 0.18047,0 0.26707,0.115498 0.089,0.115498 0.089,0.341682 v 0.74112 h -0.19731 V 95.00098 q 0,-0.166029 -0.0529,-0.238214 -0.0529,-0.0746 -0.16362,-0.0746 -0.13233,0 -0.29356,0.180468 v 0.846992 h -0.1973 v -0.714655 q 0,-0.16603 -0.0529,-0.238216 -0.0529,-0.0746 -0.16603,-0.0746 -0.13235,0 -0.29357,0.180468 v 0.846992 h -0.19731 z m 1.84437,0 h 0.19731 v 1.169429 h -0.19731 z m 0.10108,-0.240623 q -0.0578,0 -0.0987,-0.0361 -0.0385,-0.0361 -0.0385,-0.09143 0,-0.05775 0.0385,-0.09144 0.0409,-0.0361 0.0987,-0.0361 0.0578,0 0.0963,0.0361 0.0409,0.03369 0.0409,0.09144 0,0.05535 -0.0409,0.09143 -0.0385,0.0361 -0.0963,0.0361 z m 0.80248,1.438926 q -0.11548,0 -0.21657,-0.0409 -0.10108,-0.04091 -0.17565,-0.117902 -0.0724,-0.0794 -0.11547,-0.192498 -0.0409,-0.115497 -0.0409,-0.259874 0,-0.146778 0.0459,-0.259871 0.0457,-0.115497 0.1227,-0.194906 0.077,-0.0794 0.17807,-0.120315 0.10355,-0.04091 0.21657,-0.04091 0.11546,0 0.1973,0.04091 0.0817,0.0409 0.14438,0.09624 l -0.10108,0.129936 q -0.0506,-0.04572 -0.10816,-0.0746 -0.0554,-0.02886 -0.12512,-0.02886 -0.0794,0 -0.14678,0.03369 -0.0674,0.03128 -0.11548,0.09143 -0.0482,0.06015 -0.0769,0.144374 -0.0265,0.0818 -0.0265,0.182873 0,0.101069 0.0265,0.182875 0.0265,0.08181 0.0722,0.141966 0.0481,0.05774 0.11546,0.09144 0.0674,0.03128 0.14679,0.03128 0.0818,0 0.14919,-0.03369 0.0699,-0.0361 0.12512,-0.08421 l 0.0865,0.132342 q -0.0793,0.06978 -0.17565,0.110693 -0.0962,0.0385 -0.20212,0.0385 z m 0.8891,0 q -0.10816,0 -0.20694,-0.0409 -0.0964,-0.04091 -0.17084,-0.117902 -0.0746,-0.0794 -0.12031,-0.192498 -0.0433,-0.115497 -0.0433,-0.259874 0,-0.146778 0.0433,-0.259871 0.0457,-0.115497 0.12031,-0.194906 0.0746,-0.0794 0.17084,-0.120315 0.0986,-0.04091 0.20694,-0.04091 0.10827,0 0.20453,0.04091 0.0986,0.0409 0.17324,0.120315 0.0746,0.0794 0.11788,0.194906 0.0459,0.113094 0.0459,0.259871 0,0.144376 -0.0459,0.259874 -0.0434,0.113094 -0.11788,0.192498 -0.0745,0.077 -0.17324,0.117902 -0.0963,0.0409 -0.20453,0.0409 z m 0,-0.163623 q 0.0746,0 0.13715,-0.03128 0.0626,-0.03369 0.1059,-0.09143 0.0459,-0.06015 0.0699,-0.141966 0.024,-0.08181 0.024,-0.182873 0,-0.101069 -0.024,-0.182875 -0.024,-0.08422 -0.0699,-0.144372 -0.0433,-0.06016 -0.1059,-0.09144 -0.0626,-0.03369 -0.13715,-0.03369 -0.0746,0 -0.13716,0.03369 -0.0626,0.03129 -0.10815,0.09144 -0.0434,0.06015 -0.0674,0.144372 -0.024,0.08181 -0.024,0.182875 0,0.101068 0.024,0.182873 0.0241,0.08181 0.0674,0.141966 0.0457,0.05776 0.10815,0.09143 0.0626,0.03128 0.13716,0.03128 z m 0.699,-1.03468 h 0.16363 l 0.0168,0.168435 h 0.008 q 0.0841,-0.08421 0.17566,-0.139561 0.0939,-0.05774 0.21655,-0.05774 0.18528,0 0.2695,0.115497 0.0866,0.115498 0.0866,0.341684 v 0.74112 h -0.19731 v -0.714654 q 0,-0.16603 -0.0529,-0.238215 -0.0529,-0.07459 -0.16843,-0.07459 -0.0915,0 -0.16122,0.04572 -0.0699,0.04572 -0.15881,0.13475 v 0.846992 h -0.19731 z m 1.56526,1.198303 q -0.22138,0 -0.35371,-0.158812 -0.12995,-0.15881 -0.12995,-0.452371 0,-0.141967 0.0409,-0.25506 0.0434,-0.115496 0.11305,-0.194905 0.0699,-0.0794 0.16123,-0.122718 0.0914,-0.04331 0.19248,-0.04331 0.10108,0 0.17566,0.0361 0.0746,0.0361 0.15161,0.09866 l -0.0101,-0.199716 v -0.449965 h 0.1997 v 1.713236 h -0.16362 l -0.0169,-0.137156 h -0.008 q -0.0699,0.06738 -0.16123,0.117902 -0.0889,0.04812 -0.19248,0.04812 z m 0.0434,-0.16603 q 0.0817,0 0.15398,-0.0385 0.0724,-0.0409 0.14438,-0.122718 v -0.611186 q -0.0746,-0.06738 -0.14438,-0.09383 -0.0674,-0.02886 -0.13955,-0.02886 -0.0699,0 -0.13235,0.03368 -0.0602,0.03129 -0.10591,0.09144 -0.0459,0.05774 -0.0722,0.13956 -0.0265,0.08181 -0.0265,0.182873 0,0.211749 0.0842,0.329653 0.0842,0.117902 0.23822,0.117902 z m 1.084,0.16603 q -0.18769,0 -0.27431,-0.115498 -0.0842,-0.115498 -0.0842,-0.341684 v -0.74112 h 0.19971 v 0.71465 q 0,0.166031 0.0506,0.240624 0.0529,0.07217 0.16842,0.07217 0.0914,0 0.16122,-0.04571 0.0699,-0.04812 0.154,-0.151593 v -0.83015 h 0.19731 v 1.169427 h -0.16361 l -0.0167,-0.182873 h -0.008 q -0.0817,0.09624 -0.17325,0.153999 -0.089,0.05774 -0.21176,0.05774 z m 1.27891,0 q -0.11547,0 -0.21656,-0.0409 -0.10108,-0.04091 -0.17565,-0.117902 -0.0724,-0.0794 -0.11549,-0.192498 -0.0409,-0.115497 -0.0409,-0.259874 0,-0.146778 0.0457,-0.259871 0.0458,-0.115497 0.12272,-0.194906 0.077,-0.0794 0.17806,-0.120315 0.10355,-0.04091 0.21655,-0.04091 0.11548,0 0.19731,0.04091 0.0818,0.0409 0.14438,0.09624 l -0.10108,0.129936 q -0.0506,-0.04572 -0.10816,-0.0746 -0.0554,-0.02886 -0.12513,-0.02886 -0.0795,0 -0.14677,0.03369 -0.0674,0.03128 -0.11548,0.09143 -0.0481,0.06015 -0.077,0.144374 -0.0265,0.0818 -0.0265,0.182873 0,0.101069 0.0265,0.182875 0.0265,0.08181 0.0723,0.141966 0.0482,0.05774 0.11547,0.09144 0.0674,0.03128 0.14677,0.03128 0.0818,0 0.14918,-0.03369 0.0699,-0.0361 0.12513,-0.08421 l 0.0866,0.132342 q -0.0794,0.06978 -0.17566,0.110693 -0.0962,0.0385 -0.20211,0.0385 z m 0.82895,0 q -0.0938,0 -0.15882,-0.02886 -0.0626,-0.02886 -0.10355,-0.0794 -0.0386,-0.05053 -0.0553,-0.122719 -0.017,-0.07217 -0.017,-0.15881 V 94.707417 H 113.943 v -0.149189 l 0.18288,-0.01207 0.024,-0.327247 h 0.16602 v 0.327247 h 0.31524 v 0.161217 h -0.31524 v 0.649682 q 0,0.108279 0.0387,0.168435 0.0409,0.05774 0.14198,0.05774 0.0312,0 0.0674,-0.0097 0.0362,-0.0097 0.065,-0.02167 l 0.0385,0.149184 q -0.0481,0.01685 -0.10592,0.02887 -0.0554,0.01443 -0.11062,0.01443 z m 0.71585,0 q -0.10816,0 -0.20694,-0.0409 -0.0962,-0.04091 -0.17085,-0.117902 -0.0746,-0.0794 -0.12029,-0.192498 -0.0433,-0.115497 -0.0433,-0.259874 0,-0.146778 0.0433,-0.259871 0.0459,-0.115497 0.12029,-0.194906 0.0746,-0.0794 0.17085,-0.120315 0.0987,-0.04091 0.20694,-0.04091 0.10815,0 0.20452,0.04091 0.0987,0.0409 0.17325,0.120315 0.0746,0.0794 0.11788,0.194906 0.0459,0.113094 0.0459,0.259871 0,0.144376 -0.0459,0.259874 -0.0434,0.113094 -0.11788,0.192498 -0.0746,0.077 -0.17325,0.117902 -0.0962,0.0409 -0.20452,0.0409 z m 0,-0.163623 q 0.0746,0 0.13716,-0.03128 0.0626,-0.03369 0.10602,-0.09143 0.0457,-0.06015 0.0699,-0.141966 0.0241,-0.08181 0.0241,-0.182873 0,-0.101069 -0.0241,-0.182875 -0.024,-0.08422 -0.0699,-0.144372 -0.0434,-0.06016 -0.10602,-0.09144 -0.0627,-0.03369 -0.13716,-0.03369 -0.0746,0 -0.13716,0.03369 -0.0626,0.03129 -0.10815,0.09144 -0.0434,0.06015 -0.0674,0.144372 -0.024,0.08181 -0.024,0.182875 0,0.101068 0.024,0.182873 0.0241,0.08181 0.0674,0.141966 0.0459,0.05776 0.10815,0.09143 0.0627,0.03128 0.13716,0.03128 z m 0.69902,-1.03468 h 0.16361 l 0.0167,0.211749 h 0.008 q 0.0602,-0.110694 0.14437,-0.175655 0.0866,-0.06497 0.18768,-0.06497 0.0699,0 0.12514,0.02407 l -0.0385,0.173248 q -0.0289,-0.0097 -0.0529,-0.01443 -0.024,-0.0048 -0.0602,-0.0048 -0.0745,0 -0.1564,0.06015 -0.0795,0.06015 -0.13956,0.209344 v 0.750743 h -0.19732 z m 0.98052,1.198303 q -0.12513,0 -0.23821,-0.04571 -0.11305,-0.04572 -0.19732,-0.115498 l 0.0986,-0.132342 q 0.077,0.06255 0.15642,0.101068 0.0817,0.0385 0.18767,0.0385 0.11547,0 0.17324,-0.05295 0.0578,-0.05294 0.0578,-0.129937 0,-0.04571 -0.024,-0.0794 -0.024,-0.03369 -0.0626,-0.05776 -0.0362,-0.02647 -0.0842,-0.04571 -0.0481,-0.01926 -0.0962,-0.0385 -0.0626,-0.02167 -0.12513,-0.04812 -0.0626,-0.02887 -0.11306,-0.06738 -0.0481,-0.04091 -0.0794,-0.09383 -0.0312,-0.05294 -0.0312,-0.12753 0,-0.06978 0.0265,-0.129936 0.0289,-0.06255 0.0794,-0.105864 0.0529,-0.04571 0.12753,-0.06978 0.0746,-0.02647 0.16844,-0.02647 0.11063,0 0.20212,0.0385 0.0938,0.0385 0.16122,0.09383 l -0.0939,0.125124 q -0.0602,-0.04572 -0.12511,-0.0746 -0.065,-0.02887 -0.14197,-0.02887 -0.11062,0 -0.16363,0.05054 -0.0506,0.05053 -0.0506,0.117901 0,0.04091 0.0216,0.07219 0.0216,0.02887 0.0578,0.05295 0.0362,0.02167 0.0817,0.04091 0.0481,0.01684 0.0987,0.0361 0.0626,0.02406 0.12512,0.05053 0.065,0.02646 0.11548,0.06738 0.0506,0.0385 0.0818,0.09624 0.0337,0.05774 0.0337,0.13956 0,0.0722 -0.0289,0.134751 -0.0265,0.06255 -0.0818,0.110692 -0.0529,0.04812 -0.13475,0.0746 -0.0794,0.02886 -0.18286,0.02886 z"
         id="text4"
         style="font-size:1.99211px;font-family:'Source Sans Pro';-inkscape-font-specification:'Source Sans Pro';letter-spacing:-0.124507px;word-spacing:0px;fill:#4d4d4d;fill-opacity:1;fill-rule:nonzero;stroke:none;stroke-width:1.137;stroke-dasharray:none;stroke-opacity:1;paint-order:normal"
         aria-label="Mingshushu Semiconductors" />
    </g>
  </g>
</svg>
