<?xml version="1.0" encoding="iso-8859-1"?>
<!-- Uploaded to: SVG Repo, www.svgrepo.com, Generator: SVG Repo Mixer Tools -->
<svg height="800px" width="800px" version="1.1" id="Layer_1" xmlns="http://www.w3.org/2000/svg" xmlns:xlink="http://www.w3.org/1999/xlink" 
	 viewBox="0 0 512 512" xml:space="preserve">
<path style="fill:#A9AFBF;" d="M197.788,294.698l-17.878,55.801h285.121c12.181,0,22.054,9.874,22.054,22.054
	c0,12.181-9.874,22.054-22.054,22.054H149.686c-7.044,0-13.664-3.364-17.816-9.054c-4.152-5.69-5.336-13.022-3.187-19.73
	l27.1-84.584L197.788,294.698z"/>
<path style="fill:#E65A5B;" d="M466.434,82.775h-352.21l66.665,214.506h249.633l62.311-177.241
	C499.233,101.839,485.727,82.775,466.434,82.775z"/>
<path style="opacity:0.1;enable-background:new    ;" d="M138.827,334.16c10.033,9.884,23.737,15.747,38.676,15.747h2.597
	l17.689-55.208l-42.006-13.459L138.827,334.16z"/>
<path style="fill:#C7CFE2;" d="M481.674,316.825H177.503c-9.736,0-18.32-6.384-21.122-15.706L90.514,81.959H30.325
	c-12.181,0-22.054-9.874-22.054-22.054S18.144,37.85,30.325,37.85h76.59c9.736,0,18.318,6.384,21.122,15.707l65.868,219.16h287.772
	c12.181,0,22.054,9.874,22.054,22.054C503.73,306.952,493.855,316.825,481.674,316.825z"/>
<circle style="fill:#353640;" cx="201.831" cy="424.029" r="50.119"/>
<circle style="fill:#C7CFE2;" cx="201.831" cy="424.029" r="20.936"/>
<circle style="fill:#353640;" cx="393.131" cy="424.029" r="50.119"/>
<circle style="fill:#C7CFE2;" cx="393.131" cy="424.029" r="20.936"/>
<path d="M201.824,394.823c-16.104,0-29.207,13.103-29.207,29.207c0,16.104,13.103,29.207,29.207,29.207s29.207-13.103,29.207-29.207
	C231.031,407.925,217.93,394.823,201.824,394.823z M201.824,436.695c-6.985,0-12.666-5.682-12.666-12.666
	c0-6.984,5.681-12.666,12.666-12.666s12.666,5.682,12.666,12.666C214.49,431.013,208.809,436.695,201.824,436.695z"/>
<path d="M393.131,394.823c-16.104,0-29.206,13.103-29.206,29.207c0,16.104,13.101,29.207,29.206,29.207
	c16.104,0,29.207-13.103,29.207-29.207C422.338,407.925,409.235,394.823,393.131,394.823z M393.131,436.695
	c-6.984,0-12.665-5.682-12.665-12.666c0-6.984,5.681-12.666,12.665-12.666c6.985,0,12.666,5.682,12.666,12.666
	C405.797,431.013,400.116,436.695,393.131,436.695z"/>
<path d="M237.478,82.775c0,4.567,3.702,8.27,8.27,8.27h220.685c6.477,0,12.341,3.031,16.085,8.318
	c3.745,5.285,4.661,11.822,2.512,17.934l-27.845,79.202c-1.515,4.308,0.75,9.03,5.059,10.545c0.906,0.319,1.833,0.47,2.742,0.47
	c3.413,0,6.606-2.128,7.802-5.53l27.846-79.201c3.951-11.239,2.268-23.261-4.618-32.981c-6.886-9.72-17.669-15.297-29.583-15.297
	H245.748C241.181,74.504,237.478,78.207,237.478,82.775z"/>
<path d="M102.607,150.934c1.314,4.374,5.926,6.856,10.302,5.54c4.374-1.314,6.855-5.927,5.539-10.301L98.433,79.578
	c-1.051-3.497-4.27-5.89-7.921-5.89H30.325c-7.601,0-13.784-6.183-13.784-13.784S22.724,46.12,30.325,46.12h76.588
	c6.132,0,11.436,3.946,13.202,9.816l65.868,219.16c1.051,3.496,4.27,5.89,7.921,5.89h287.772c7.601,0,13.784,6.183,13.784,13.784
	s-6.183,13.784-13.784,13.784H190.699h-13.196c-6.054,0-11.461-4.025-13.202-9.816l-0.948-3.156l-34.961-116.327
	c-1.313-4.374-5.924-6.853-10.301-5.54c-4.376,1.314-6.856,5.926-5.54,10.301l31.798,105.803l-23.543,73.483
	c-2.943,9.19-1.306,19.332,4.382,27.127c5.248,7.191,13.449,11.7,22.264,12.357c-2.584,6.589-4.018,13.75-4.018,21.244
	c0,32.197,26.194,58.391,58.391,58.391s58.391-26.194,58.391-58.391c0-7.459-1.421-14.588-3.982-21.151h82.488
	c-2.56,6.563-3.982,13.692-3.982,21.151c0,32.197,26.194,58.391,58.39,58.391c32.197,0,58.391-26.194,58.391-58.391
	c0-7.459-1.421-14.588-3.982-21.151h17.49c16.721,0,30.325-13.603,30.325-30.325c0-16.722-13.604-30.325-30.325-30.325H191.245
	l5.489-17.133h284.941c16.722,0,30.325-13.603,30.325-30.325c0-16.722-13.603-30.325-30.325-30.325h-30.843l10.329-29.38
	c1.515-4.309-0.75-9.03-5.059-10.545c-4.307-1.514-9.031,0.751-10.545,5.059l-12.258,34.866H200.053L147.939,91.045h64.728
	c4.569,0,8.27-3.703,8.27-8.27c0-4.567-3.702-8.27-8.27-8.27h-69.7l-7.011-23.328c-3.883-12.917-15.553-21.597-29.042-21.597H30.325
	C13.604,29.578,0,43.183,0,59.903s13.604,30.325,30.325,30.325h54.038L102.607,150.934z M201.824,465.88
	c-23.077,0-41.85-18.774-41.85-41.85c0-9.315,3.062-17.927,8.229-24.887c7.811-10.524,20.502-16.962,33.622-16.962
	c13.063,0,25.848,6.476,33.627,16.969c5.164,6.96,8.224,15.569,8.224,24.881C243.676,447.106,224.901,465.88,201.824,465.88z
	 M393.131,465.88c-23.077,0-41.849-18.774-41.849-41.85c0-16.534,10.466-32.036,25.623-38.525
	c5.107-2.187,10.673-3.326,16.228-3.326c18.22,0,34.891,12.444,40.106,29.887c1.159,3.876,1.743,7.918,1.743,11.963
	C434.982,447.106,416.208,465.88,393.131,465.88z M465.031,358.769c7.601,0,13.784,6.183,13.784,13.784s-6.183,13.784-13.784,13.784
	h-27.319c-0.766,0-3.669-3.952-4.288-4.542c-10.767-10.25-25.42-16.157-40.292-16.157c-12.67,0-25.173,4.221-35.257,11.886
	c-3.417,2.586-6.551,5.542-9.322,8.813H246.405c-10.308-12.166-25.577-19.744-41.499-20.614c-1.027-0.056-2.054-0.085-3.081-0.085
	c-15.082,0-29.816,6.023-40.637,16.515c-1.008,0.978-1.982,1.992-2.917,3.038c-0.342,0.382-0.694,0.753-1.026,1.145h-7.56
	c-4.387,0-8.549-2.115-11.135-5.658c-2.585-3.543-3.33-8.154-1.992-12.332l17.423-54.381c-0.353,1.119,2.158,2.695,2.848,3.218
	c3.116,2.36,6.442,4.5,10.089,5.944c4.017,1.59,8.157,1.967,12.445,1.967l-7.33,22.88c-0.805,2.515-0.362,5.264,1.195,7.398
	c1.557,2.134,4.039,3.395,6.681,3.395h285.12V358.769z"/>
</svg>