<?xml version="1.0" encoding="iso-8859-1"?>
<!-- Uploaded to: SVG Repo, www.svgrepo.com, Generator: SVG Repo Mixer Tools -->
<svg height="800px" width="800px" version="1.1" id="Layer_1" xmlns="http://www.w3.org/2000/svg" xmlns:xlink="http://www.w3.org/1999/xlink" 
	 viewBox="0 0 512 512" xml:space="preserve">
<polygon style="fill:#C7CFE2;" points="281.174,8.64 79.161,8.64 79.161,503.36 432.838,503.36 432.838,139.744 357.005,74.192 "/>
<polygon style="opacity:0.1;enable-background:new    ;" points="281.174,8.64 246.611,8.64 246.611,174.306 432.838,174.306 
	432.838,139.744 357.005,74.192 "/>
<polygon style="fill:#DCE5FA;" points="360.484,8.64 281.174,8.64 281.174,139.744 432.838,139.744 432.838,80.995 "/>
<path d="M145.151,219.204h221.696c4.773,0,8.64-3.869,8.64-8.64c0-4.772-3.867-8.64-8.64-8.64H145.151
	c-4.773,0-8.64,3.869-8.64,8.64C136.511,215.336,140.38,219.204,145.151,219.204z"/>
<path d="M145.151,276.161h221.696c4.773,0,8.64-3.869,8.64-8.641c0-4.772-3.867-8.64-8.64-8.64H145.151
	c-4.773,0-8.64,3.869-8.64,8.64C136.511,272.292,140.38,276.161,145.151,276.161z"/>
<path d="M145.151,333.118h221.696c4.773,0,8.64-3.869,8.64-8.64s-3.867-8.64-8.64-8.64H145.151c-4.773,0-8.64,3.869-8.64,8.64
	S140.38,333.118,145.151,333.118z"/>
<path d="M366.848,449.487h-106.49c-4.773,0-8.64,3.869-8.64,8.64s3.867,8.64,8.64,8.64h106.49c4.773,0,8.64-3.869,8.64-8.64
	S371.619,449.487,366.848,449.487z"/>
<path d="M432.838,408.029c-4.773,0-8.64,3.869-8.64,8.64v78.05H87.802V17.281h33.8c4.773,0,8.64-3.869,8.64-8.64
	S126.375,0,121.602,0H79.161c-4.773,0-8.64,3.869-8.64,8.64V503.36c0,4.772,3.867,8.64,8.64,8.64h353.677
	c4.773,0,8.64-3.869,8.64-8.64v-86.69C441.478,411.897,437.611,408.029,432.838,408.029z"/>
<path d="M366.594,2.531C364.973,0.91,362.776,0,360.484,0h-204.32c-4.773,0-8.64,3.869-8.64,8.64s3.867,8.64,8.64,8.64h116.37
	v122.463c0,4.772,3.867,8.64,8.641,8.64h143.024v233.723c0,4.772,3.867,8.64,8.64,8.64s8.64-3.869,8.64-8.64V80.995
	c0-2.291-0.91-4.49-2.53-6.109L366.594,2.531z M424.197,131.104H289.815V17.281h67.09l67.292,67.292V131.104z"/>
</svg>