<?xml version="1.0" encoding="iso-8859-1"?>
<!-- Uploaded to: SVG Repo, www.svgrepo.com, Generator: SVG Repo Mixer Tools -->
<svg height="800px" width="800px" version="1.1" id="Layer_1" xmlns="http://www.w3.org/2000/svg" xmlns:xlink="http://www.w3.org/1999/xlink" 
	 viewBox="0 0 512 512" xml:space="preserve">
<polygon style="fill:#78C8E6;" points="480.897,116.873 422.211,362.276 89.789,362.276 31.103,116.873 "/>
<polygon style="fill:#DCE5FA;" points="384.67,266.009 127.329,266.009 83.464,46.438 428.535,46.438 "/>
<polygon style="opacity:0.1;enable-background:new    ;" points="319.93,145.423 308.193,184.948 111.135,184.948 127.329,266.009 
	384.67,266.009 408.76,145.423 "/>
<polygon style="fill:#A6E7FF;" points="346.205,180.635 334.468,220.159 8.803,220.159 67.488,465.563 444.512,465.563 
	503.197,180.635 503.197,180.635 "/>
<path d="M454.929,414.979c-4.749-0.98-9.417,2.083-10.397,6.846l-7.196,34.936H74.434L38.169,305.114
	c-1.13-4.728-5.881-7.648-10.608-6.514c-4.728,1.13-7.646,5.88-6.514,10.608L58.926,467.61c0.947,3.961,4.488,6.756,8.561,6.756
	H444.51c4.177,0,7.779-2.935,8.622-7.027l8.643-41.961C462.757,420.615,459.692,415.96,454.929,414.979z"/>
<path d="M510.02,175.072c-1.671-2.052-4.177-3.242-6.823-3.242h-26.392l12.653-52.912c0.627-2.621,0.019-5.384-1.65-7.5
	c-1.669-2.115-4.216-3.35-6.911-3.35H425.2l11.968-59.907c0.516-2.586-0.154-5.268-1.825-7.306c-1.673-2.039-4.17-3.221-6.808-3.221
	H179.929c-4.863,0-8.803,3.941-8.803,8.803s3.94,8.803,8.803,8.803H417.8l-23.292,116.592h-48.302c-3.897,0-7.33,2.562-8.438,6.297
	l-9.867,33.228H125.388L94.2,55.241h50.518c4.863,0,8.803-3.941,8.803-8.803s-3.94-8.803-8.803-8.803H83.464
	c-2.637,0-5.135,1.182-6.808,3.221c-1.671,2.039-2.342,4.721-1.825,7.306l11.968,59.907H31.103c-2.695,0-5.242,1.235-6.911,3.35
	c-1.67,2.116-2.277,4.879-1.65,7.501l22.106,92.436H8.803c-2.695,0-5.242,1.235-6.911,3.35c-1.67,2.116-2.277,4.879-1.65,7.501
	l12.386,51.79c1.131,4.728,5.877,7.648,10.608,6.514c4.729-1.13,7.646-5.88,6.514-10.608l-9.791-40.94h314.51
	c3.896,0,7.33-2.562,8.438-6.297l9.867-33.229h139.621l-40.61,197.177c-0.981,4.762,2.083,9.417,6.846,10.397
	c0.6,0.123,1.196,0.183,1.785,0.183c4.089,0,7.755-2.866,8.613-7.029l42.79-207.755C512.352,179.818,511.692,177.124,510.02,175.072
	z M62.75,211.357l-20.491-85.681h48.058l17.117,85.681H62.75z M458.703,171.832h-46.241l9.221-46.156h48.056L458.703,171.832z"/>
</svg>