<?xml version="1.0" encoding="iso-8859-1"?>
<!-- Uploaded to: SVG Repo, www.svgrepo.com, Generator: SVG Repo Mixer Tools -->
<svg version="1.1" id="Layer_1" xmlns="http://www.w3.org/2000/svg" xmlns:xlink="http://www.w3.org/1999/xlink" 
	 viewBox="0 0 512.002 512.002" xml:space="preserve">
<path style="fill:#FFD782;" d="M234.932,327.097l163.812,163.812c16.855,16.855,44.183,16.855,61.038,0l31.126-31.126
	c16.855-16.855,16.855-44.183,0-61.038L327.097,234.933L234.932,327.097z"/>
<path style="opacity:0.1;enable-background:new    ;" d="M467.007,483.683l23.9-23.9c16.855-16.855,16.855-44.183,0-61.038
	L327.095,234.933l-23.9,23.9l163.812,163.812C483.862,439.5,483.863,466.828,467.007,483.683z"/>
<path style="fill:#A9AFBF;" d="M299.233,262.797L124.906,88.471v-5.379c0-14.89-7.621-28.745-20.198-36.717L44.887,8.452
	L8.45,44.889l37.922,59.821c7.972,12.576,21.827,20.198,36.717,20.198h5.379l174.326,174.326L299.233,262.797z"/>
<rect x="231.148" y="222.841" transform="matrix(-0.7071 0.7071 -0.7071 -0.7071 620.2436 256.921)" style="opacity:0.1;enable-background:new    ;" width="51.528" height="68.152"/>
<path style="fill:#E6B95C;" d="M302.805,210.642l-92.164,92.165c-13.415,13.415-13.415,35.167,0,48.583l0,0
	c13.415,13.415,35.167,13.415,48.583,0l92.165-92.165c13.415-13.415,13.415-35.167,0-48.583l0,0
	C337.971,197.226,316.221,197.226,302.805,210.642z"/>
<path style="opacity:0.1;enable-background:new    ;" d="M327.486,234.542c13.415,13.415,13.417,35.166,0,48.583l23.9-23.9
	c13.417-13.417,13.415-35.167,0-48.583s-35.166-13.417-48.583,0l-23.9,23.9C292.32,221.127,314.071,221.127,327.486,234.542z"/>
<path d="M83.09,133.358h1.879l38.779,38.779c3.301,3.3,8.651,3.3,11.951,0c3.3-3.3,3.3-8.651,0-11.95
	c0,0-41.207-41.207-41.255-41.255c-3.031-3.031-7.437-2.475-11.355-2.475c-12.063,0-23.121-6.083-29.581-16.272L19.21,46.079
	l26.867-26.868l54.106,34.3c10.189,6.459,16.272,17.518,16.272,29.581c0,4.086-0.58,8.147,2.474,11.354l144.062,144.06
	l-24.486,24.487L159.6,184.088c-3.3-3.3-8.65-3.3-11.951,0c-3.3,3.3-3.3,8.651,0,11.95l78.905,78.906l-21.888,21.888
	c-8.084,8.084-12.537,18.834-12.537,30.266s4.453,22.182,12.537,30.266c8.085,8.084,18.834,12.537,30.267,12.537
	c8.563,0,16.74-2.498,23.704-7.149L392.77,496.884c9.748,9.748,22.708,15.117,36.496,15.117c13.784,0,26.746-5.369,36.494-15.117
	l31.125-31.126c9.748-9.748,15.118-22.708,15.118-36.496c0-13.785-5.37-26.746-15.117-36.494l-24.482-24.483
	c-3.301-3.3-8.651-3.301-11.951,0c-3.3,3.3-3.3,8.651,0,11.95l24.483,24.483c6.555,6.555,10.166,15.272,10.166,24.544
	s-3.611,17.989-10.167,24.545l-31.126,31.126c-6.555,6.556-15.272,10.166-24.543,10.166c-9.271,0-17.989-3.611-24.544-10.166
	L271.177,351.387l80.214-80.214l85.16,85.161c3.3,3.3,8.65,3.301,11.951,0c3.3-3.3,3.3-8.651,0-11.95l-85.747-85.749
	c4.65-6.963,7.149-15.141,7.148-23.705c0-11.432-4.453-22.182-12.537-30.266c-8.085-8.084-18.834-12.537-30.266-12.537
	s-22.182,4.453-30.266,12.537l-21.888,21.888L133.355,84.97v-1.878c0-17.885-9.018-34.278-24.123-43.855L49.411,1.315
	c-3.343-2.118-7.702-1.634-10.5,1.162L2.474,38.914c-2.795,2.796-3.279,7.159-1.16,10.5l37.922,59.821
	C48.811,124.34,65.206,133.358,83.09,133.358z M308.78,216.618c4.892-4.892,11.396-7.586,18.315-7.586
	c6.919,0,13.423,2.694,18.315,7.586c10.101,10.1,10.101,26.532,0.001,36.632l-92.165,92.165c-4.892,4.892-11.396,7.587-18.315,7.587
	c-6.92,0-13.424-2.695-18.316-7.587c-10.101-10.1-10.101-26.533,0-36.633L308.78,216.618z"/>
</svg>